<svg xmlns="http://www.w3.org/2000/svg" viewBox="0 0 128 128" width="128" height="128">
  <rect width="128" height="128" rx="28" fill="#000000"/>
  <path fill="#1d9bf0" d="M104.5 36.1c-2.98 1.32-6.18 2.21-9.55 2.62a16.67 16.67 0 0 0 7.31-9.2 33.2 33.2 0 0 1-10.56 4.04 16.64 16.64 0 0 0-28.35 15.17A47.22 47.22 0 0 1 28.67 31.3a16.64 16.64 0 0 0 5.15 22.2 16.6 16.6 0 0 1-7.53-2.08v.21a16.64 16.64 0 0 0 13.34 16.31 16.75 16.75 0 0 1-7.51.29 16.64 16.64 0 0 0 15.54 11.55A33.38 33.38 0 0 1 23 86.9a33.9 33.9 0 0 1-3.97-.23A47.06 47.06 0 0 0 44.53 94.1c30.6 0 47.33-25.35 47.33-47.33 0-.72-.02-1.44-.05-2.15a33.8 33.8 0 0 0 8.3-8.6z"/>
</svg>
